<svg id="search-btn" viewBox="0 0 50 50" xmlns="http://www.w3.org/2000/svg" style="fill: #03c75a"> <path d="M22.13.5c11.378 0 20.632 9.256 20.632 20.63 0 4.699-1.566 9.155-4.439 12.782l10.164 10.165a2.41 2.41 0 0 1-1.706 4.115 2.412 2.412 0 0 1-1.706-.705L33.31 35.719a2.41 2.41 0 0 1 0-3.41 15.71 15.71 0 0 0 4.628-11.178c0-8.718-7.09-15.808-15.807-15.808-8.718 0-15.808 7.09-15.808 15.808 0 7.15 4.817 13.43 11.714 15.273a2.41 2.41 0 0 1 1.705 2.954 2.41 2.41 0 0 1-2.95 1.705C7.788 38.658 1.5 30.46 1.5 21.131 1.5 9.756 10.756.5 22.13.5zm4.716 34.746a3.483 3.483 0 1 1 0 6.966 3.483 3.483 0 0 1 0-6.966z"></path> </svg>